{
    "asset" : {
        "generator" : "Khronos glTF Blender I/O v1.7.33",
        "version" : "2.0"
    },
    "scene" : 0,
    "scenes" : [
        {
            "extras" : {
                "b_export" : 1,
                "export_path" : "E:\\ArtCenter\\CT3\\DaydreamLand\\",
                "b_settings" : 1,
                "b_cubemap" : 0,
                "b_show_env_sky" : 0,
                "b_cubemap_background" : 0,
                "s_cubemap_path" : "/env/",
                "b_cast_shadows" : 1,
                "b_joystick" : 1,
                "s_output" : "exporting..."
            },
            "name" : "Scene",
            "nodes" : [
                1
            ]
        }
    ],
    "nodes" : [
        {
            "mesh" : 0,
            "name" : "Box1213",
            "rotation" : [
                0.6993324160575867,
                -0.10456619411706924,
                0.10456622391939163,
                0.6993325352668762
            ],
            "scale" : [
                0.26139503717422485,
                0.30303099751472473,
                0.30303099751472473
            ]
        },
        {
            "children" : [
                0
            ],
            "name" : "Group235",
            "rotation" : [
                0,
                0.7071066498756409,
                0,
                0.70710688829422
            ],
            "scale" : [
                0.013644290156662464,
                0.013644290156662464,
                0.013644290156662464
            ],
            "translation" : [
                -0.0007979151559993625,
                0.8601668477058411,
                -0.005120540037751198
            ]
        }
    ],
    "materials" : [
        {
            "doubleSided" : true,
            "name" : "Material #187.001",
            "pbrMetallicRoughness" : {
                "baseColorFactor" : [
                    0.988235354423523,
                    0.35686275362968445,
                    0.4901961088180542,
                    1
                ],
                "metallicFactor" : 0,
                "roughnessFactor" : 0.5527864098548889
            }
        },
        {
            "doubleSided" : true,
            "name" : "Material #188.001",
            "pbrMetallicRoughness" : {
                "baseColorFactor" : [
                    0,
                    0,
                    0,
                    1
                ],
                "metallicFactor" : 0,
                "roughnessFactor" : 0.5527864098548889
            }
        }
    ],
    "meshes" : [
        {
            "name" : "Mesh.180",
            "primitives" : [
                {
                    "attributes" : {
                        "POSITION" : 0,
                        "NORMAL" : 1,
                        "TANGENT" : 2,
                        "TEXCOORD_0" : 3
                    },
                    "indices" : 4,
                    "material" : 0
                },
                {
                    "attributes" : {
                        "POSITION" : 5,
                        "NORMAL" : 6,
                        "TANGENT" : 7,
                        "TEXCOORD_0" : 8
                    },
                    "indices" : 9,
                    "material" : 1
                }
            ]
        }
    ],
    "accessors" : [
        {
            "bufferView" : 0,
            "componentType" : 5126,
            "count" : 622,
            "max" : [
                8.12544059753418,
                4.183577060699463,
                4.355588912963867
            ],
            "min" : [
                -8.574529647827148,
                -1.8225990533828735,
                -4.0696635246276855
            ],
            "type" : "VEC3"
        },
        {
            "bufferView" : 1,
            "componentType" : 5126,
            "count" : 622,
            "type" : "VEC3"
        },
        {
            "bufferView" : 2,
            "componentType" : 5126,
            "count" : 622,
            "type" : "VEC4"
        },
        {
            "bufferView" : 3,
            "componentType" : 5126,
            "count" : 622,
            "type" : "VEC2"
        },
        {
            "bufferView" : 4,
            "componentType" : 5123,
            "count" : 4032,
            "type" : "SCALAR"
        },
        {
            "bufferView" : 5,
            "componentType" : 5126,
            "count" : 572,
            "max" : [
                8.565974235534668,
                2.575099468231201,
                4.10870361328125
            ],
            "min" : [
                -8.129471778869629,
                -1.8908579349517822,
                -4.3024749755859375
            ],
            "type" : "VEC3"
        },
        {
            "bufferView" : 6,
            "componentType" : 5126,
            "count" : 572,
            "type" : "VEC3"
        },
        {
            "bufferView" : 7,
            "componentType" : 5126,
            "count" : 572,
            "type" : "VEC4"
        },
        {
            "bufferView" : 8,
            "componentType" : 5126,
            "count" : 572,
            "type" : "VEC2"
        },
        {
            "bufferView" : 9,
            "componentType" : 5123,
            "count" : 4032,
            "type" : "SCALAR"
        }
    ],
    "bufferViews" : [
        {
            "buffer" : 0,
            "byteLength" : 7464,
            "byteOffset" : 0
        },
        {
            "buffer" : 0,
            "byteLength" : 7464,
            "byteOffset" : 7464
        },
        {
            "buffer" : 0,
            "byteLength" : 9952,
            "byteOffset" : 14928
        },
        {
            "buffer" : 0,
            "byteLength" : 4976,
            "byteOffset" : 24880
        },
        {
            "buffer" : 0,
            "byteLength" : 8064,
            "byteOffset" : 29856
        },
        {
            "buffer" : 0,
            "byteLength" : 6864,
            "byteOffset" : 37920
        },
        {
            "buffer" : 0,
            "byteLength" : 6864,
            "byteOffset" : 44784
        },
        {
            "buffer" : 0,
            "byteLength" : 9152,
            "byteOffset" : 51648
        },
        {
            "buffer" : 0,
            "byteLength" : 4576,
            "byteOffset" : 60800
        },
        {
            "buffer" : 0,
            "byteLength" : 8064,
            "byteOffset" : 65376
        }
    ],
    "buffers" : [
        {
            "byteLength" : 73440,
            "uri" : "data:application/octet-stream;base64,"
        }
    ]
}
