{
    "asset" : {
        "generator" : "Khronos glTF Blender I/O v1.7.33",
        "version" : "2.0"
    },
    "scene" : 0,
    "scenes" : [
        {
            "extras" : {
                "b_export" : 1,
                "export_path" : "E:\\ArtCenter\\CT3\\DaydreamLand\\",
                "b_settings" : 1,
                "b_cubemap" : 1,
                "b_show_env_sky" : 1,
                "b_cubemap_background" : 1,
                "s_cubemap_path" : "/env/",
                "b_cast_shadows" : 1,
                "b_joystick" : 1,
                "s_output" : "exporting..."
            },
            "name" : "Scene",
            "nodes" : [
                1
            ]
        }
    ],
    "nodes" : [
        {
            "extras" : {
                "MaxHandle" : 17653
            },
            "mesh" : 0,
            "name" : "Box1279",
            "rotation" : [
                0,
                0.7071067094802856,
                -0.7071068286895752,
                2.2197245641564223e-07
            ]
        },
        {
            "children" : [
                0
            ],
            "extras" : {
                "MaxHandle" : 17362
            },
            "name" : "Group443",
            "rotation" : [
                0,
                0.7071068286895752,
                0,
                0.7071067094802856
            ],
            "translation" : [
                898.2542724609375,
                -48.978271484375,
                5471.20849609375
            ]
        }
    ],
    "materials" : [
        {
            "doubleSided" : true,
            "name" : "Material #187",
            "pbrMetallicRoughness" : {
                "baseColorFactor" : [
                    0.988235354423523,
                    0.35686275362968445,
                    0.4901961088180542,
                    1
                ],
                "metallicFactor" : 0,
                "roughnessFactor" : 0.5527864098548889
            }
        },
        {
            "doubleSided" : true,
            "name" : "Material #188",
            "pbrMetallicRoughness" : {
                "baseColorFactor" : [
                    0,
                    0,
                    0,
                    1
                ],
                "metallicFactor" : 0,
                "roughnessFactor" : 0.5527864098548889
            }
        }
    ],
    "meshes" : [
        {
            "name" : "Mesh.170",
            "primitives" : [
                {
                    "attributes" : {
                        "POSITION" : 0,
                        "NORMAL" : 1,
                        "TEXCOORD_0" : 2
                    },
                    "indices" : 3,
                    "material" : 0
                },
                {
                    "attributes" : {
                        "POSITION" : 4,
                        "NORMAL" : 5,
                        "TEXCOORD_0" : 6
                    },
                    "indices" : 7,
                    "material" : 1
                }
            ]
        }
    ],
    "accessors" : [
        {
            "bufferView" : 0,
            "componentType" : 5126,
            "count" : 35996,
            "max" : [
                880.243896484375,
                251.21031188964844,
                2109.318115234375
            ],
            "min" : [
                -1547.8060302734375,
                -973.7408447265625,
                -1827.7742919921875
            ],
            "type" : "VEC3"
        },
        {
            "bufferView" : 1,
            "componentType" : 5126,
            "count" : 35996,
            "type" : "VEC3"
        },
        {
            "bufferView" : 2,
            "componentType" : 5126,
            "count" : 35996,
            "type" : "VEC2"
        },
        {
            "bufferView" : 3,
            "componentType" : 5123,
            "count" : 146466,
            "type" : "SCALAR"
        },
        {
            "bufferView" : 4,
            "componentType" : 5126,
            "count" : 42025,
            "max" : [
                880.243896484375,
                251.21055603027344,
                2109.318115234375
            ],
            "min" : [
                -1551.9581298828125,
                -973.7408447265625,
                -1710.355224609375
            ],
            "type" : "VEC3"
        },
        {
            "bufferView" : 5,
            "componentType" : 5126,
            "count" : 42025,
            "type" : "VEC3"
        },
        {
            "bufferView" : 6,
            "componentType" : 5126,
            "count" : 42025,
            "type" : "VEC2"
        },
        {
            "bufferView" : 7,
            "componentType" : 5123,
            "count" : 172434,
            "type" : "SCALAR"
        }
    ],
    "bufferViews" : [
        {
            "buffer" : 0,
            "byteLength" : 431952,
            "byteOffset" : 0
        },
        {
            "buffer" : 0,
            "byteLength" : 431952,
            "byteOffset" : 431952
        },
        {
            "buffer" : 0,
            "byteLength" : 287968,
            "byteOffset" : 863904
        },
        {
            "buffer" : 0,
            "byteLength" : 292932,
            "byteOffset" : 1151872
        },
        {
            "buffer" : 0,
            "byteLength" : 504300,
            "byteOffset" : 1444804
        },
        {
            "buffer" : 0,
            "byteLength" : 504300,
            "byteOffset" : 1949104
        },
        {
            "buffer" : 0,
            "byteLength" : 336200,
            "byteOffset" : 2453404
        },
        {
            "buffer" : 0,
            "byteLength" : 344868,
            "byteOffset" : 2789604
        }
    ],
    "buffers" : [
        {
            "byteLength" : 3134472,
            "uri" : "data:application/octet-stream;base64,"
        }
    ]
}
