{
    "asset" : {
        "generator" : "Khronos glTF Blender I/O v1.7.33",
        "version" : "2.0"
    },
    "scene" : 0,
    "scenes" : [
        {
            "extras" : {
                "b_export" : 1,
                "export_path" : "E:\\ArtCenter\\CT3\\DaydreamLand\\",
                "b_settings" : 1,
                "b_cubemap" : 0,
                "b_show_env_sky" : 0,
                "b_cubemap_background" : 0,
                "s_cubemap_path" : "/env/",
                "b_cast_shadows" : 1,
                "b_joystick" : 1,
                "s_output" : "exporting..."
            },
            "name" : "Scene",
            "nodes" : [
                1
            ]
        }
    ],
    "nodes" : [
        {
            "mesh" : 0,
            "name" : "Box1226",
            "rotation" : [
                0.4999701976776123,
                0.5000298023223877,
                -0.500029981136322,
                0.4999699890613556
            ],
            "scale" : [
                0.26139500737190247,
                0.30303099751472473,
                0.30303099751472473
            ]
        },
        {
            "children" : [
                0
            ],
            "name" : "Group235",
            "rotation" : [
                0,
                0.7071066498756409,
                0,
                0.70710688829422
            ],
            "scale" : [
                0.013644290156662464,
                0.013644290156662464,
                0.013644290156662464
            ],
            "translation" : [
                -0.0007979151559993625,
                0.8601668477058411,
                -0.005120540037751198
            ]
        }
    ],
    "materials" : [
        {
            "doubleSided" : true,
            "name" : "Material #187.001",
            "pbrMetallicRoughness" : {
                "baseColorFactor" : [
                    0.988235354423523,
                    0.35686275362968445,
                    0.4901961088180542,
                    1
                ],
                "metallicFactor" : 0,
                "roughnessFactor" : 0.5527864098548889
            }
        },
        {
            "doubleSided" : true,
            "name" : "Material #188.001",
            "pbrMetallicRoughness" : {
                "baseColorFactor" : [
                    0,
                    0,
                    0,
                    1
                ],
                "metallicFactor" : 0,
                "roughnessFactor" : 0.5527864098548889
            }
        }
    ],
    "meshes" : [
        {
            "name" : "Mesh.193",
            "primitives" : [
                {
                    "attributes" : {
                        "POSITION" : 0,
                        "NORMAL" : 1,
                        "TANGENT" : 2,
                        "TEXCOORD_0" : 3
                    },
                    "indices" : 4,
                    "material" : 0
                },
                {
                    "attributes" : {
                        "POSITION" : 5,
                        "NORMAL" : 6,
                        "TANGENT" : 7,
                        "TEXCOORD_0" : 8
                    },
                    "indices" : 9,
                    "material" : 1
                }
            ]
        }
    ],
    "accessors" : [
        {
            "bufferView" : 0,
            "componentType" : 5126,
            "count" : 145,
            "max" : [
                8.116132736206055,
                4.174704074859619,
                4.345475196838379
            ],
            "min" : [
                -8.564656257629395,
                -1.8123903274536133,
                -4.060375690460205
            ],
            "type" : "VEC3"
        },
        {
            "bufferView" : 1,
            "componentType" : 5126,
            "count" : 145,
            "type" : "VEC3"
        },
        {
            "bufferView" : 2,
            "componentType" : 5126,
            "count" : 145,
            "type" : "VEC4"
        },
        {
            "bufferView" : 3,
            "componentType" : 5126,
            "count" : 145,
            "type" : "VEC2"
        },
        {
            "bufferView" : 4,
            "componentType" : 5123,
            "count" : 504,
            "type" : "SCALAR"
        },
        {
            "bufferView" : 5,
            "componentType" : 5126,
            "count" : 121,
            "max" : [
                8.557446479797363,
                2.572352886199951,
                4.099349498748779
            ],
            "min" : [
                -8.126846313476562,
                -1.8797391653060913,
                -4.292588233947754
            ],
            "type" : "VEC3"
        },
        {
            "bufferView" : 6,
            "componentType" : 5126,
            "count" : 121,
            "type" : "VEC3"
        },
        {
            "bufferView" : 7,
            "componentType" : 5126,
            "count" : 121,
            "type" : "VEC4"
        },
        {
            "bufferView" : 8,
            "componentType" : 5126,
            "count" : 121,
            "type" : "VEC2"
        },
        {
            "bufferView" : 9,
            "componentType" : 5123,
            "count" : 504,
            "type" : "SCALAR"
        }
    ],
    "bufferViews" : [
        {
            "buffer" : 0,
            "byteLength" : 1740,
            "byteOffset" : 0
        },
        {
            "buffer" : 0,
            "byteLength" : 1740,
            "byteOffset" : 1740
        },
        {
            "buffer" : 0,
            "byteLength" : 2320,
            "byteOffset" : 3480
        },
        {
            "buffer" : 0,
            "byteLength" : 1160,
            "byteOffset" : 5800
        },
        {
            "buffer" : 0,
            "byteLength" : 1008,
            "byteOffset" : 6960
        },
        {
            "buffer" : 0,
            "byteLength" : 1452,
            "byteOffset" : 7968
        },
        {
            "buffer" : 0,
            "byteLength" : 1452,
            "byteOffset" : 9420
        },
        {
            "buffer" : 0,
            "byteLength" : 1936,
            "byteOffset" : 10872
        },
        {
            "buffer" : 0,
            "byteLength" : 968,
            "byteOffset" : 12808
        },
        {
            "buffer" : 0,
            "byteLength" : 1008,
            "byteOffset" : 13776
        }
    ],
    "buffers" : [
        {
            "byteLength" : 14784,
            "uri" : "data:application/octet-stream;base64,"
        }
    ]
}
