{
    "asset" : {
        "generator" : "Khronos glTF Blender I/O v1.7.33",
        "version" : "2.0"
    },
    "scene" : 0,
    "scenes" : [
        {
            "extras" : {
                "b_export" : 1,
                "export_path" : "E:\\ArtCenter\\CT3\\DaydreamLand\\",
                "b_settings" : 1,
                "b_cubemap" : 0,
                "b_show_env_sky" : 0,
                "b_cubemap_background" : 0,
                "s_cubemap_path" : "/env/",
                "b_cast_shadows" : 1,
                "b_joystick" : 1,
                "s_output" : "exporting..."
            },
            "name" : "Scene",
            "nodes" : [
                1
            ]
        }
    ],
    "nodes" : [
        {
            "mesh" : 0,
            "name" : "Box1207",
            "rotation" : [
                0.7071068286895752,
                0,
                0,
                0.7071067094802856
            ],
            "scale" : [
                0.6288620233535767,
                0.6288620233535767,
                0.6288619637489319
            ]
        },
        {
            "children" : [
                0
            ],
            "name" : "Group232",
            "rotation" : [
                0,
                0.7071066498756409,
                0,
                0.70710688829422
            ],
            "scale" : [
                0.012440656311810017,
                0.01396772637963295,
                0.012440656311810017
            ],
            "translation" : [
                -0.0007732931990176439,
                0.11516004800796509,
                -0.0050216675736010075
            ]
        }
    ],
    "materials" : [
        {
            "doubleSided" : true,
            "name" : "Material #187.001",
            "pbrMetallicRoughness" : {
                "baseColorFactor" : [
                    0.988235354423523,
                    0.35686275362968445,
                    0.4901961088180542,
                    1
                ],
                "metallicFactor" : 0,
                "roughnessFactor" : 0.5527864098548889
            }
        },
        {
            "doubleSided" : true,
            "name" : "Material #188.001",
            "pbrMetallicRoughness" : {
                "baseColorFactor" : [
                    0,
                    0,
                    0,
                    1
                ],
                "metallicFactor" : 0,
                "roughnessFactor" : 0.5527864098548889
            }
        }
    ],
    "meshes" : [
        {
            "name" : "Mesh.175",
            "primitives" : [
                {
                    "attributes" : {
                        "POSITION" : 0,
                        "NORMAL" : 1,
                        "TANGENT" : 2,
                        "TEXCOORD_0" : 3
                    },
                    "indices" : 4,
                    "material" : 0
                },
                {
                    "attributes" : {
                        "POSITION" : 5,
                        "NORMAL" : 6,
                        "TANGENT" : 7,
                        "TEXCOORD_0" : 8
                    },
                    "indices" : 9,
                    "material" : 1
                }
            ]
        }
    ],
    "accessors" : [
        {
            "bufferView" : 0,
            "componentType" : 5126,
            "count" : 6525,
            "max" : [
                48.256473541259766,
                5.956653594970703,
                12.642290115356445
            ],
            "min" : [
                -48.79509353637695,
                -10.594131469726562,
                -13.227409362792969
            ],
            "type" : "VEC3"
        },
        {
            "bufferView" : 1,
            "componentType" : 5126,
            "count" : 6525,
            "type" : "VEC3"
        },
        {
            "bufferView" : 2,
            "componentType" : 5126,
            "count" : 6525,
            "type" : "VEC4"
        },
        {
            "bufferView" : 3,
            "componentType" : 5126,
            "count" : 6525,
            "type" : "VEC2"
        },
        {
            "bufferView" : 4,
            "componentType" : 5123,
            "count" : 40908,
            "type" : "SCALAR"
        },
        {
            "bufferView" : 5,
            "componentType" : 5126,
            "count" : 13401,
            "max" : [
                48.64467239379883,
                5.956936359405518,
                12.642289161682129
            ],
            "min" : [
                -48.79509353637695,
                -10.574268341064453,
                -13.227409362792969
            ],
            "type" : "VEC3"
        },
        {
            "bufferView" : 6,
            "componentType" : 5126,
            "count" : 13401,
            "type" : "VEC3"
        },
        {
            "bufferView" : 7,
            "componentType" : 5126,
            "count" : 13401,
            "type" : "VEC4"
        },
        {
            "bufferView" : 8,
            "componentType" : 5126,
            "count" : 13401,
            "type" : "VEC2"
        },
        {
            "bufferView" : 9,
            "componentType" : 5123,
            "count" : 89820,
            "type" : "SCALAR"
        }
    ],
    "bufferViews" : [
        {
            "buffer" : 0,
            "byteLength" : 78300,
            "byteOffset" : 0
        },
        {
            "buffer" : 0,
            "byteLength" : 78300,
            "byteOffset" : 78300
        },
        {
            "buffer" : 0,
            "byteLength" : 104400,
            "byteOffset" : 156600
        },
        {
            "buffer" : 0,
            "byteLength" : 52200,
            "byteOffset" : 261000
        },
        {
            "buffer" : 0,
            "byteLength" : 81816,
            "byteOffset" : 313200
        },
        {
            "buffer" : 0,
            "byteLength" : 160812,
            "byteOffset" : 395016
        },
        {
            "buffer" : 0,
            "byteLength" : 160812,
            "byteOffset" : 555828
        },
        {
            "buffer" : 0,
            "byteLength" : 214416,
            "byteOffset" : 716640
        },
        {
            "buffer" : 0,
            "byteLength" : 107208,
            "byteOffset" : 931056
        },
        {
            "buffer" : 0,
            "byteLength" : 179640,
            "byteOffset" : 1038264
        }
    ],
    "buffers" : [
        {
            "byteLength" : 1217904,
            "uri" : "data:application/octet-stream;base64,"
        }
    ]
}
