{
    "asset" : {
        "generator" : "Khronos glTF Blender I/O v1.7.33",
        "version" : "2.0"
    },
    "scene" : 0,
    "scenes" : [
        {
            "extras" : {
                "b_export" : 1,
                "export_path" : "E:\\ArtCenter\\CT3\\DaydreamLand\\",
                "b_settings" : 1,
                "b_cubemap" : 1,
                "b_show_env_sky" : 0,
                "b_cubemap_background" : 1,
                "s_cubemap_path" : "/env/",
                "b_cast_shadows" : 1,
                "b_joystick" : 1,
                "s_output" : "exporting...",
                "b_use_default_lights" : 0,
                "b_camera_cube" : 0
            },
            "name" : "Scene",
            "nodes" : [
                0
            ]
        }
    ],
    "nodes" : [
        {
            "extras" : {
                "AFRAME_CUBEMAP" : 1.0
            },
            "mesh" : 0,
            "name" : "campfire",
            "rotation" : [
                0.7071068286895752,
                0,
                0,
                0.7071067094802856
            ],
            "scale" : [
                0.009999999776482582,
                0.009999999776482582,
                0.009999999776482582
            ]
        }
    ],
    "materials" : [
        {
            "doubleSided" : true,
            "name" : "Material.001",
            "pbrMetallicRoughness" : {
                "baseColorFactor" : [
                    0.7507013082504272,
                    0.5040456056594849,
                    0.8000000715255737,
                    1
                ],
                "roughnessFactor" : 0
            }
        }
    ],
    "meshes" : [
        {
            "name" : "Mesh.322",
            "primitives" : [
                {
                    "attributes" : {
                        "POSITION" : 0,
                        "NORMAL" : 1,
                        "TANGENT" : 2,
                        "TEXCOORD_0" : 3
                    },
                    "indices" : 4,
                    "material" : 0
                }
            ]
        }
    ],
    "accessors" : [
        {
            "bufferView" : 0,
            "componentType" : 5126,
            "count" : 3315,
            "max" : [
                66.04837036132812,
                68.04808044433594,
                26.32645606994629
            ],
            "min" : [
                -73.80204010009766,
                -68.64506530761719,
                -34.961212158203125
            ],
            "type" : "VEC3"
        },
        {
            "bufferView" : 1,
            "componentType" : 5126,
            "count" : 3315,
            "type" : "VEC3"
        },
        {
            "bufferView" : 2,
            "componentType" : 5126,
            "count" : 3315,
            "type" : "VEC4"
        },
        {
            "bufferView" : 3,
            "componentType" : 5126,
            "count" : 3315,
            "type" : "VEC2"
        },
        {
            "bufferView" : 4,
            "componentType" : 5123,
            "count" : 3840,
            "type" : "SCALAR"
        }
    ],
    "bufferViews" : [
        {
            "buffer" : 0,
            "byteLength" : 39780,
            "byteOffset" : 0
        },
        {
            "buffer" : 0,
            "byteLength" : 39780,
            "byteOffset" : 39780
        },
        {
            "buffer" : 0,
            "byteLength" : 53040,
            "byteOffset" : 79560
        },
        {
            "buffer" : 0,
            "byteLength" : 26520,
            "byteOffset" : 132600
        },
        {
            "buffer" : 0,
            "byteLength" : 7680,
            "byteOffset" : 159120
        }
    ],
    "buffers" : [
        {
            "byteLength" : 166800,
            "uri" : "data:application/octet-stream;base64,"
        }
    ]
}
