{
    "asset" : {
        "generator" : "Khronos glTF Blender I/O v1.7.33",
        "version" : "2.0"
    },
    "scene" : 0,
    "scenes" : [
        {
            "extras" : {
                "b_export" : 1,
                "export_path" : "E:\\ArtCenter\\CT3\\DaydreamLand\\",
                "b_settings" : 1,
                "b_cubemap" : 1,
                "b_show_env_sky" : 0,
                "b_cubemap_background" : 0,
                "s_cubemap_path" : "/env/",
                "b_cast_shadows" : 1,
                "b_joystick" : 1,
                "s_output" : "exporting..."
            },
            "name" : "Scene",
            "nodes" : [
                0
            ]
        }
    ],
    "nodes" : [
        {
            "extras" : {
                "AFRAME_CUBEMAP" : 1.0
            },
            "mesh" : 0,
            "name" : "Cone.001",
            "scale" : [
                1,
                1.8054786920547485,
                1
            ]
        }
    ],
    "materials" : [
        {
            "doubleSided" : true,
            "name" : "Material.002",
            "pbrMetallicRoughness" : {
                "baseColorFactor" : [
                    0.800000011920929,
                    0.800000011920929,
                    0.800000011920929,
                    1
                ],
                "roughnessFactor" : 0
            }
        }
    ],
    "meshes" : [
        {
            "name" : "Cone.001",
            "primitives" : [
                {
                    "attributes" : {
                        "POSITION" : 0,
                        "NORMAL" : 1,
                        "TANGENT" : 2,
                        "TEXCOORD_0" : 3
                    },
                    "indices" : 4,
                    "material" : 0
                }
            ]
        }
    ],
    "accessors" : [
        {
            "bufferView" : 0,
            "componentType" : 5126,
            "count" : 1024,
            "max" : [
                1.0194423198699951,
                1.9618940353393555,
                1.0194423198699951
            ],
            "min" : [
                -1.0194423198699951,
                -0.07192990928888321,
                -1.0194423198699951
            ],
            "type" : "VEC3"
        },
        {
            "bufferView" : 1,
            "componentType" : 5126,
            "count" : 1024,
            "type" : "VEC3"
        },
        {
            "bufferView" : 2,
            "componentType" : 5126,
            "count" : 1024,
            "type" : "VEC4"
        },
        {
            "bufferView" : 3,
            "componentType" : 5126,
            "count" : 1024,
            "type" : "VEC2"
        },
        {
            "bufferView" : 4,
            "componentType" : 5123,
            "count" : 1536,
            "type" : "SCALAR"
        }
    ],
    "bufferViews" : [
        {
            "buffer" : 0,
            "byteLength" : 12288,
            "byteOffset" : 0
        },
        {
            "buffer" : 0,
            "byteLength" : 12288,
            "byteOffset" : 12288
        },
        {
            "buffer" : 0,
            "byteLength" : 16384,
            "byteOffset" : 24576
        },
        {
            "buffer" : 0,
            "byteLength" : 8192,
            "byteOffset" : 40960
        },
        {
            "buffer" : 0,
            "byteLength" : 3072,
            "byteOffset" : 49152
        }
    ],
    "buffers" : [
        {
            "byteLength" : 52224,
            "uri" : "data:application/octet-stream;base64,"
        }
    ]
}
