{
    "asset" : {
        "generator" : "Khronos glTF Blender I/O v1.7.33",
        "version" : "2.0"
    },
    "scene" : 0,
    "scenes" : [
        {
            "extras" : {
                "b_export" : 1,
                "export_path" : "E:\\ArtCenter\\CT3\\DaydreamLand\\",
                "b_settings" : 1,
                "b_cubemap" : 1,
                "b_show_env_sky" : 0,
                "b_cubemap_background" : 0,
                "s_cubemap_path" : "/env/",
                "b_cast_shadows" : 1,
                "b_joystick" : 1,
                "s_output" : "exporting..."
            },
            "name" : "Scene",
            "nodes" : [
                0
            ]
        }
    ],
    "nodes" : [
        {
            "extras" : {
                "AFRAME_CUBEMAP" : 1.0
            },
            "mesh" : 0,
            "name" : "Cone"
        }
    ],
    "materials" : [
        {
            "doubleSided" : true,
            "name" : "Material.002",
            "pbrMetallicRoughness" : {
                "baseColorFactor" : [
                    0.800000011920929,
                    0.800000011920929,
                    0.800000011920929,
                    1
                ],
                "roughnessFactor" : 0
            }
        }
    ],
    "meshes" : [
        {
            "name" : "Cone",
            "primitives" : [
                {
                    "attributes" : {
                        "POSITION" : 0,
                        "NORMAL" : 1,
                        "TEXCOORD_0" : 2
                    },
                    "indices" : 3,
                    "material" : 0
                }
            ]
        }
    ],
    "accessors" : [
        {
            "bufferView" : 0,
            "componentType" : 5126,
            "count" : 128,
            "max" : [
                1,
                1.9393939971923828,
                1
            ],
            "min" : [
                -1,
                -0.06060609221458435,
                -1
            ],
            "type" : "VEC3"
        },
        {
            "bufferView" : 1,
            "componentType" : 5126,
            "count" : 128,
            "type" : "VEC3"
        },
        {
            "bufferView" : 2,
            "componentType" : 5126,
            "count" : 128,
            "type" : "VEC2"
        },
        {
            "bufferView" : 3,
            "componentType" : 5123,
            "count" : 186,
            "type" : "SCALAR"
        }
    ],
    "bufferViews" : [
        {
            "buffer" : 0,
            "byteLength" : 1536,
            "byteOffset" : 0
        },
        {
            "buffer" : 0,
            "byteLength" : 1536,
            "byteOffset" : 1536
        },
        {
            "buffer" : 0,
            "byteLength" : 1024,
            "byteOffset" : 3072
        },
        {
            "buffer" : 0,
            "byteLength" : 372,
            "byteOffset" : 4096
        }
    ],
    "buffers" : [
        {
            "byteLength" : 4468,
            "uri" : "data:application/octet-stream;base64,"
        }
    ]
}
