{
    "asset" : {
        "generator" : "Khronos glTF Blender I/O v1.7.33",
        "version" : "2.0"
    },
    "scene" : 0,
    "scenes" : [
        {
            "extras" : {
                "b_export" : 1,
                "export_path" : "E:\\ArtCenter\\CT3\\DaydreamLand\\",
                "b_settings" : 1,
                "b_cubemap" : 1,
                "b_show_env_sky" : 0,
                "b_cubemap_background" : 1,
                "s_cubemap_path" : "/env/",
                "b_cast_shadows" : 1,
                "b_joystick" : 1,
                "s_output" : "exporting...",
                "b_use_default_lights" : 0,
                "b_camera_cube" : 0
            },
            "name" : "Scene",
            "nodes" : [
                0
            ]
        }
    ],
    "nodes" : [
        {
            "extras" : {
                "AFRAME_CUBEMAP" : 1.0
            },
            "mesh" : 0,
            "name" : "Icosphere",
            "scale" : [
                81.95629119873047,
                81.95629119873047,
                81.95629119873047
            ]
        }
    ],
    "materials" : [
        {
            "doubleSided" : true,
            "name" : "sphere",
            "pbrMetallicRoughness" : {
                "metallicFactor" : 0.17616580426692963,
                "roughnessFactor" : 0.4818652868270874
            }
        }
    ],
    "meshes" : [
        {
            "name" : "Icosphere",
            "primitives" : [
                {
                    "attributes" : {
                        "POSITION" : 0,
                        "NORMAL" : 1
                    },
                    "indices" : 2,
                    "material" : 0
                }
            ]
        }
    ],
    "accessors" : [
        {
            "bufferView" : 0,
            "componentType" : 5126,
            "count" : 9760,
            "max" : [
                0.18155357241630554,
                0.0917484313249588,
                0.18155327439308167
            ],
            "min" : [
                -0.1815532147884369,
                -0.0900556892156601,
                -0.18155333399772644
            ],
            "type" : "VEC3"
        },
        {
            "bufferView" : 1,
            "componentType" : 5126,
            "count" : 9760,
            "type" : "VEC3"
        },
        {
            "bufferView" : 2,
            "componentType" : 5123,
            "count" : 46080,
            "type" : "SCALAR"
        }
    ],
    "bufferViews" : [
        {
            "buffer" : 0,
            "byteLength" : 117120,
            "byteOffset" : 0
        },
        {
            "buffer" : 0,
            "byteLength" : 117120,
            "byteOffset" : 117120
        },
        {
            "buffer" : 0,
            "byteLength" : 92160,
            "byteOffset" : 234240
        }
    ],
    "buffers" : [
        {
            "byteLength" : 326400,
            "uri" : "data:application/octet-stream;base64,"
        }
    ]
}
