{
    "asset" : {
        "generator" : "Khronos glTF Blender I/O v1.7.33",
        "version" : "2.0"
    },
    "scene" : 0,
    "scenes" : [
        {
            "extras" : {
                "b_export" : 1,
                "export_path" : "E:\\ArtCenter\\CT3\\DaydreamLand\\",
                "b_settings" : 1,
                "b_cubemap" : 1,
                "b_show_env_sky" : 0,
                "b_cubemap_background" : 1,
                "s_cubemap_path" : "/env/",
                "b_cast_shadows" : 1,
                "b_joystick" : 1,
                "s_output" : "exporting...",
                "b_use_default_lights" : 0,
                "b_camera_cube" : 0
            },
            "name" : "Scene",
            "nodes" : [
                0
            ]
        }
    ],
    "nodes" : [
        {
            "mesh" : 0,
            "name" : "Plane.002",
            "scale" : [
                20.574533462524414,
                20.574533462524414,
                20.574533462524414
            ]
        }
    ],
    "materials" : [
        {
            "doubleSided" : true,
            "extras" : {
                "AFRAME_CUBEMAP" : 1.0
            },
            "name" : "chrome",
            "pbrMetallicRoughness" : {
                "baseColorFactor" : [
                    0.8000000715255737,
                    0.09279334545135498,
                    0.08020756393671036,
                    1
                ],
                "roughnessFactor" : 0.07512953877449036
            }
        }
    ],
    "meshes" : [
        {
            "name" : "Plane.005",
            "primitives" : [
                {
                    "attributes" : {
                        "POSITION" : 0,
                        "NORMAL" : 1,
                        "TANGENT" : 2,
                        "TEXCOORD_0" : 3
                    },
                    "indices" : 4,
                    "material" : 0
                }
            ]
        }
    ],
    "accessors" : [
        {
            "bufferView" : 0,
            "componentType" : 5126,
            "count" : 4,
            "max" : [
                1,
                0,
                1
            ],
            "min" : [
                -1,
                0,
                -1
            ],
            "type" : "VEC3"
        },
        {
            "bufferView" : 1,
            "componentType" : 5126,
            "count" : 4,
            "type" : "VEC3"
        },
        {
            "bufferView" : 2,
            "componentType" : 5126,
            "count" : 4,
            "type" : "VEC4"
        },
        {
            "bufferView" : 3,
            "componentType" : 5126,
            "count" : 4,
            "type" : "VEC2"
        },
        {
            "bufferView" : 4,
            "componentType" : 5123,
            "count" : 6,
            "type" : "SCALAR"
        }
    ],
    "bufferViews" : [
        {
            "buffer" : 0,
            "byteLength" : 48,
            "byteOffset" : 0
        },
        {
            "buffer" : 0,
            "byteLength" : 48,
            "byteOffset" : 48
        },
        {
            "buffer" : 0,
            "byteLength" : 64,
            "byteOffset" : 96
        },
        {
            "buffer" : 0,
            "byteLength" : 32,
            "byteOffset" : 160
        },
        {
            "buffer" : 0,
            "byteLength" : 12,
            "byteOffset" : 192
        }
    ],
    "buffers" : [
        {
            "byteLength" : 204,
            "uri" : "data:application/octet-stream;base64,"
        }
    ]
}
