{
    "asset" : {
        "generator" : "Khronos glTF Blender I/O v1.7.33",
        "version" : "2.0"
    },
    "scene" : 0,
    "scenes" : [
        {
            "extras" : {
                "b_export" : 1,
                "export_path" : "E:\\ArtCenter\\CT3\\DaydreamLand\\",
                "b_settings" : 1,
                "b_cubemap" : 0,
                "b_show_env_sky" : 0,
                "b_cubemap_background" : 0,
                "s_cubemap_path" : "/env/",
                "b_cast_shadows" : 1,
                "b_joystick" : 1,
                "s_output" : "exporting..."
            },
            "name" : "Scene",
            "nodes" : [
                1
            ]
        }
    ],
    "nodes" : [
        {
            "mesh" : 0,
            "name" : "Plane329",
            "rotation" : [
                -0.27059802412986755,
                -0.6532815098762512,
                0.6532813906669617,
                0.27059823274612427
            ],
            "scale" : [
                -0.9488621354103088,
                -1.0000001192092896,
                -0.9488620162010193
            ]
        },
        {
            "children" : [
                0
            ],
            "name" : "Group229",
            "rotation" : [
                0,
                0,
                -1,
                7.549790836947068e-08
            ],
            "scale" : [
                -0.003495913464576006,
                -0.004065447952598333,
                -0.003495913464576006
            ],
            "translation" : [
                -0.0007732931990176439,
                0.6924300789833069,
                -0.15847349166870117
            ]
        }
    ],
    "materials" : [
        {
            "doubleSided" : true,
            "name" : "Material #187.001",
            "pbrMetallicRoughness" : {
                "baseColorFactor" : [
                    0.988235354423523,
                    0.35686275362968445,
                    0.4901961088180542,
                    1
                ],
                "metallicFactor" : 0,
                "roughnessFactor" : 0.5527864098548889
            }
        }
    ],
    "meshes" : [
        {
            "name" : "Mesh.233",
            "primitives" : [
                {
                    "attributes" : {
                        "POSITION" : 0,
                        "NORMAL" : 1,
                        "TANGENT" : 2,
                        "TEXCOORD_0" : 3
                    },
                    "indices" : 4,
                    "material" : 0
                }
            ]
        }
    ],
    "accessors" : [
        {
            "bufferView" : 0,
            "componentType" : 5126,
            "count" : 11661,
            "max" : [
                43.11433410644531,
                4.356593608856201,
                43.11433029174805
            ],
            "min" : [
                -43.11259460449219,
                -5.617805004119873,
                -43.112586975097656
            ],
            "type" : "VEC3"
        },
        {
            "bufferView" : 1,
            "componentType" : 5126,
            "count" : 11661,
            "type" : "VEC3"
        },
        {
            "bufferView" : 2,
            "componentType" : 5126,
            "count" : 11661,
            "type" : "VEC4"
        },
        {
            "bufferView" : 3,
            "componentType" : 5126,
            "count" : 11661,
            "type" : "VEC2"
        },
        {
            "bufferView" : 4,
            "componentType" : 5123,
            "count" : 49392,
            "type" : "SCALAR"
        }
    ],
    "bufferViews" : [
        {
            "buffer" : 0,
            "byteLength" : 139932,
            "byteOffset" : 0
        },
        {
            "buffer" : 0,
            "byteLength" : 139932,
            "byteOffset" : 139932
        },
        {
            "buffer" : 0,
            "byteLength" : 186576,
            "byteOffset" : 279864
        },
        {
            "buffer" : 0,
            "byteLength" : 93288,
            "byteOffset" : 466440
        },
        {
            "buffer" : 0,
            "byteLength" : 98784,
            "byteOffset" : 559728
        }
    ],
    "buffers" : [
        {
            "byteLength" : 658512,
            "uri" : "data:application/octet-stream;base64,"
        }
    ]
}
