{
    "asset" : {
        "generator" : "Khronos glTF Blender I/O v1.7.33",
        "version" : "2.0"
    },
    "scene" : 0,
    "scenes" : [
        {
            "extras" : {
                "b_export" : 1,
                "export_path" : "E:\\ArtCenter\\CT3\\DaydreamLand\\",
                "b_settings" : 1,
                "b_cubemap" : 0,
                "b_show_env_sky" : 0,
                "b_cubemap_background" : 0,
                "s_cubemap_path" : "/env/",
                "b_cast_shadows" : 1,
                "b_joystick" : 1,
                "s_output" : "exporting..."
            },
            "name" : "Scene",
            "nodes" : [
                1
            ]
        }
    ],
    "nodes" : [
        {
            "mesh" : 0,
            "name" : "Plane335",
            "rotation" : [
                0,
                0.7071067094802856,
                0.7071068286895752,
                3.9055981915225857e-07
            ],
            "scale" : [
                -0.5014449954032898,
                -0.5014449954032898,
                -0.5014449954032898
            ]
        },
        {
            "children" : [
                0
            ],
            "name" : "Group235",
            "rotation" : [
                0,
                0.7071066498756409,
                0,
                0.70710688829422
            ],
            "scale" : [
                0.013644290156662464,
                0.013644290156662464,
                0.013644290156662464
            ],
            "translation" : [
                -0.0007979151559993625,
                0.8601668477058411,
                -0.005120540037751198
            ]
        }
    ],
    "materials" : [
        {
            "doubleSided" : true,
            "name" : "Material #187.001",
            "pbrMetallicRoughness" : {
                "baseColorFactor" : [
                    0.988235354423523,
                    0.35686275362968445,
                    0.4901961088180542,
                    1
                ],
                "metallicFactor" : 0,
                "roughnessFactor" : 0.5527864098548889
            }
        }
    ],
    "meshes" : [
        {
            "name" : "Mesh.239",
            "primitives" : [
                {
                    "attributes" : {
                        "POSITION" : 0,
                        "NORMAL" : 1,
                        "TANGENT" : 2,
                        "TEXCOORD_0" : 3
                    },
                    "indices" : 4,
                    "material" : 0
                }
            ]
        }
    ],
    "accessors" : [
        {
            "bufferView" : 0,
            "componentType" : 5126,
            "count" : 1714,
            "max" : [
                13.704087257385254,
                18.200817108154297,
                17.467756271362305
            ],
            "min" : [
                -14.53960132598877,
                -12.758824348449707,
                -27.61507225036621
            ],
            "type" : "VEC3"
        },
        {
            "bufferView" : 1,
            "componentType" : 5126,
            "count" : 1714,
            "type" : "VEC3"
        },
        {
            "bufferView" : 2,
            "componentType" : 5126,
            "count" : 1714,
            "type" : "VEC4"
        },
        {
            "bufferView" : 3,
            "componentType" : 5126,
            "count" : 1714,
            "type" : "VEC2"
        },
        {
            "bufferView" : 4,
            "componentType" : 5123,
            "count" : 7500,
            "type" : "SCALAR"
        }
    ],
    "bufferViews" : [
        {
            "buffer" : 0,
            "byteLength" : 20568,
            "byteOffset" : 0
        },
        {
            "buffer" : 0,
            "byteLength" : 20568,
            "byteOffset" : 20568
        },
        {
            "buffer" : 0,
            "byteLength" : 27424,
            "byteOffset" : 41136
        },
        {
            "buffer" : 0,
            "byteLength" : 13712,
            "byteOffset" : 68560
        },
        {
            "buffer" : 0,
            "byteLength" : 15000,
            "byteOffset" : 82272
        }
    ],
    "buffers" : [
        {
            "byteLength" : 97272,
            "uri" : "data:application/octet-stream;base64,"
        }
    ]
}
