{
    "asset" : {
        "generator" : "Khronos glTF Blender I/O v1.7.33",
        "version" : "2.0"
    },
    "scene" : 0,
    "scenes" : [
        {
            "extras" : {
                "b_export" : 1,
                "export_path" : "E:\\ArtCenter\\CT3\\DaydreamLand\\",
                "b_settings" : 1,
                "b_cubemap" : 1,
                "b_show_env_sky" : 0,
                "b_cubemap_background" : 1,
                "s_cubemap_path" : "/env/",
                "b_cast_shadows" : 1,
                "b_joystick" : 1,
                "s_output" : "exporting...",
                "b_use_default_lights" : 0,
                "b_camera_cube" : 0
            },
            "name" : "Scene",
            "nodes" : [
                1
            ]
        }
    ],
    "nodes" : [
        {
            "mesh" : 0,
            "name" : "Plane",
            "translation" : [
                0,
                -0.0003090447571594268,
                0
            ]
        },
        {
            "children" : [
                0
            ],
            "name" : "Plane.001",
            "scale" : [
                108.98365020751953,
                108.98365020751953,
                108.98365020751953
            ],
            "translation" : [
                0,
                0.03368082642555237,
                0
            ]
        }
    ],
    "materials" : [
        {
            "doubleSided" : true,
            "name" : "Material.006",
            "pbrMetallicRoughness" : {
                "baseColorFactor" : [
                    0.800000011920929,
                    0.800000011920929,
                    0.800000011920929,
                    1
                ],
                "metallicFactor" : 0,
                "roughnessFactor" : 0.5
            }
        }
    ],
    "meshes" : [
        {
            "name" : "Plane.004",
            "primitives" : [
                {
                    "attributes" : {
                        "POSITION" : 0,
                        "NORMAL" : 1
                    },
                    "indices" : 2,
                    "material" : 0
                }
            ]
        }
    ],
    "accessors" : [
        {
            "bufferView" : 0,
            "componentType" : 5126,
            "count" : 4,
            "max" : [
                1,
                0,
                1
            ],
            "min" : [
                -1,
                0,
                -1
            ],
            "type" : "VEC3"
        },
        {
            "bufferView" : 1,
            "componentType" : 5126,
            "count" : 4,
            "type" : "VEC3"
        },
        {
            "bufferView" : 2,
            "componentType" : 5123,
            "count" : 6,
            "type" : "SCALAR"
        }
    ],
    "bufferViews" : [
        {
            "buffer" : 0,
            "byteLength" : 48,
            "byteOffset" : 0
        },
        {
            "buffer" : 0,
            "byteLength" : 48,
            "byteOffset" : 48
        },
        {
            "buffer" : 0,
            "byteLength" : 12,
            "byteOffset" : 96
        }
    ],
    "buffers" : [
        {
            "byteLength" : 108,
            "uri" : "data:application/octet-stream;base64,"
        }
    ]
}
