{
    "asset" : {
        "generator" : "Khronos glTF Blender I/O v1.7.33",
        "version" : "2.0"
    },
    "scene" : 0,
    "scenes" : [
        {
            "extras" : {
                "b_export" : 1,
                "export_path" : "E:\\ArtCenter\\CT3\\DaydreamLand\\",
                "b_settings" : 1,
                "b_cubemap" : 0,
                "b_show_env_sky" : 0,
                "b_cubemap_background" : 0,
                "s_cubemap_path" : "/env/",
                "b_cast_shadows" : 1,
                "b_joystick" : 1,
                "s_output" : "exporting..."
            },
            "name" : "Scene",
            "nodes" : [
                1
            ]
        }
    ],
    "nodes" : [
        {
            "mesh" : 0,
            "name" : "Sphere69",
            "rotation" : [
                0.27059832215309143,
                -0.6532813310623169,
                0.6532814502716064,
                0.27059823274612427
            ],
            "scale" : [
                0.27388298511505127,
                0.27388298511505127,
                0.27388298511505127
            ]
        },
        {
            "children" : [
                0
            ],
            "name" : "Group235",
            "rotation" : [
                0,
                0.7071066498756409,
                0,
                0.70710688829422
            ],
            "scale" : [
                0.013644290156662464,
                0.013644290156662464,
                0.013644290156662464
            ],
            "translation" : [
                -0.0007979151559993625,
                0.8601668477058411,
                -0.005120540037751198
            ]
        }
    ],
    "materials" : [
        {
            "doubleSided" : true,
            "name" : "Material #188.001",
            "pbrMetallicRoughness" : {
                "baseColorFactor" : [
                    0,
                    0,
                    0,
                    1
                ],
                "metallicFactor" : 0,
                "roughnessFactor" : 0.5527864098548889
            }
        }
    ],
    "meshes" : [
        {
            "name" : "Mesh.293",
            "primitives" : [
                {
                    "attributes" : {
                        "POSITION" : 0,
                        "NORMAL" : 1,
                        "TANGENT" : 2,
                        "TEXCOORD_0" : 3
                    },
                    "indices" : 4,
                    "material" : 0
                }
            ]
        }
    ],
    "accessors" : [
        {
            "bufferView" : 0,
            "componentType" : 5126,
            "count" : 590,
            "max" : [
                4.013481140136719,
                4.013481140136719,
                4.013482093811035
            ],
            "min" : [
                -4.013481140136719,
                -4.013481140136719,
                -4.013480186462402
            ],
            "type" : "VEC3"
        },
        {
            "bufferView" : 1,
            "componentType" : 5126,
            "count" : 590,
            "type" : "VEC3"
        },
        {
            "bufferView" : 2,
            "componentType" : 5126,
            "count" : 590,
            "type" : "VEC4"
        },
        {
            "bufferView" : 3,
            "componentType" : 5126,
            "count" : 590,
            "type" : "VEC2"
        },
        {
            "bufferView" : 4,
            "componentType" : 5123,
            "count" : 2880,
            "type" : "SCALAR"
        }
    ],
    "bufferViews" : [
        {
            "buffer" : 0,
            "byteLength" : 7080,
            "byteOffset" : 0
        },
        {
            "buffer" : 0,
            "byteLength" : 7080,
            "byteOffset" : 7080
        },
        {
            "buffer" : 0,
            "byteLength" : 9440,
            "byteOffset" : 14160
        },
        {
            "buffer" : 0,
            "byteLength" : 4720,
            "byteOffset" : 23600
        },
        {
            "buffer" : 0,
            "byteLength" : 5760,
            "byteOffset" : 28320
        }
    ],
    "buffers" : [
        {
            "byteLength" : 34080,
            "uri" : "data:application/octet-stream;base64,"
        }
    ]
}
